<svg width="150" height="48" viewBox="0 0 150 48" fill="none" xmlns="http://www.w3.org/2000/svg">
<path fill-rule="evenodd" clip-rule="evenodd" d="M75.9251 29.5727C75.9251 35.3238 71.3197 38.9906 63.6825 38.9906C61.3064 38.9906 59.0717 38.6778 57.0299 38.1125C56.2041 37.8838 54.9625 37.3949 54.1468 37.0601C53.6782 36.8677 53.445 36.3441 53.607 35.8642L55.0109 31.7056C55.1991 31.1482 55.8346 30.883 56.366 31.1355C57.0569 31.4636 57.9445 31.8747 58.4804 32.0826C60.0813 32.7036 61.6363 33.0465 63.7592 33.0465C67.4052 33.0465 68.9787 31.8886 68.9787 30.0745C68.9787 28.3872 66.5681 27.7536 63.6456 26.9853C59.147 25.8027 53.4355 24.3013 53.4355 18.1477C53.4355 13.2458 56.8512 9 65.3711 9C67.4547 9 69.6985 9.24185 71.7401 9.68386C72.3565 9.81732 73.2395 10.0771 73.9074 10.2831C74.4273 10.4435 74.704 11.0037 74.5251 11.5175L73.1157 15.5679C72.9443 16.0607 72.4155 16.3311 71.9147 16.1846C71.1138 15.9504 69.9725 15.6245 69.3515 15.4827C68.1437 15.207 67.0143 15.0599 65.6014 15.0599C61.4565 15.0599 60.382 16.3336 60.382 17.7231C60.382 19.3811 62.752 19.9737 65.6411 20.6962C70.1508 21.8239 75.9251 23.2678 75.9251 29.5727ZM123.752 21.1255C124.29 21.1255 124.726 20.6896 124.726 20.1518V17.6006C124.726 17.0629 124.29 16.6269 123.752 16.6269H119.012V14.099C119.012 13.6599 118.718 13.2751 118.294 13.1596L113.954 11.9767C113.335 11.8078 112.724 12.2741 112.724 12.9161V18.3899L112.715 22.8922V31.7796C112.715 36.1721 115.117 38.9906 120.14 38.9906C120.843 38.9906 121.779 38.9394 122.709 38.8549C123.416 38.7906 124.249 38.6526 124.91 38.5297C125.515 38.4172 125.844 37.7693 125.594 37.2068L124.485 34.7085C124.289 34.2667 123.799 34.0407 123.326 34.1388C123.192 34.1665 123.06 34.1906 122.945 34.2056C122.639 34.2453 122.331 34.2687 122.069 34.2687C119.994 34.2687 119.012 33.4634 119.012 31.5965V21.1255H123.752ZM84.5025 38.6401C85.0403 38.6401 85.4762 38.2041 85.4762 37.6664V14.1075C85.4762 13.6677 85.1814 13.2825 84.7569 13.1676L80.3715 11.9809C79.7525 11.8133 79.1434 12.2795 79.1434 12.9208V37.6664C79.1434 38.2041 79.5793 38.6401 80.1171 38.6401H84.5025ZM41.0362 38.634C41.574 38.634 42.0099 38.198 42.0099 37.6602V28.0553C42.0099 24.2485 43.211 21.9424 46.6322 21.9424C47.1065 21.9424 47.5256 21.9742 47.9189 22.0376C48.0248 22.0547 48.1523 22.0827 48.2855 22.1155C48.8055 22.2437 49.3506 21.9707 49.5172 21.4618L50.829 17.4546C51.0014 16.9279 50.7004 16.3601 50.1576 16.2478C49.9824 16.2116 49.8074 16.1799 49.6545 16.1606C49.2816 16.1136 48.8779 16.0858 48.452 16.0858C45.4675 16.0858 42.9926 17.5499 41.464 20.3319H41.3548L40.8732 17.4829C40.7941 17.0144 40.3883 16.6714 39.9131 16.6714H36.7236C36.1858 16.6714 35.7499 17.1074 35.7499 17.6452V37.6602C35.7499 38.198 36.1858 38.634 36.7236 38.634H41.0362ZM31.8907 37.6971C31.8907 38.2145 31.4712 38.634 30.9538 38.634H26.4582C25.9408 38.634 25.5214 38.2145 25.5214 37.6971V18.8126C25.5214 18.389 25.8057 18.0181 26.2148 17.908L30.7104 16.6984C31.3056 16.5382 31.8907 16.9866 31.8907 17.603V37.6971ZM31.8951 9.93873C31.8951 9.32228 31.3099 8.87385 30.7147 9.03411L26.2231 10.2434C25.8141 10.3535 25.5298 10.7244 25.5298 11.148V13.6978C25.5298 14.3143 26.115 14.7627 26.7102 14.6024L31.2018 13.3931C31.6108 13.283 31.8951 12.9121 31.8951 12.4885V9.93873ZM139.437 38.9959C130.814 38.7903 126.954 34.64 126.954 27.2459C126.954 20.5474 130.557 15.9718 138.091 15.9718C144.424 15.9718 148.5 19.5957 148.5 26.404C148.5 26.8575 148.447 27.5869 148.399 28.1636C148.356 28.6615 147.938 29.0395 147.438 29.0395H133.432C133.76 32.2973 135.943 33.7249 140.202 33.7249C142.068 33.7249 142.35 33.7002 144.316 33.2268C144.469 33.1898 144.661 33.1204 144.857 33.0405C145.388 32.8234 146.012 33.0499 146.227 33.5819L147.371 36.4132C147.583 36.9381 147.306 37.5295 146.762 37.6856C145.086 38.1662 141.68 39.0493 139.437 38.9959ZM142.923 25.1961H133.424C133.715 22.341 135.025 20.9866 138.265 20.9866C141.104 20.9866 142.851 22.341 142.923 25.1961ZM104.793 38.634C104.339 38.634 103.945 38.3198 103.844 37.8769L103.507 36.4011C101.76 38.0117 99.3214 39 96.4097 39C91.6419 39 88.6939 36.5841 88.6939 31.6792C88.6939 27.7259 91.7875 24.761 97.6472 24.761C99.5762 24.761 101.25 25.0538 102.633 25.4198V24.3217C102.633 22.1621 101.323 21.0639 97.8292 21.0639C95.8923 21.0639 95.0664 21.2259 94.0234 21.593C93.7888 21.6755 93.3825 21.8272 93.0049 21.9697C92.5095 22.1568 91.9542 21.9165 91.754 21.4262L90.568 18.5219C90.3594 18.011 90.6165 17.429 91.1383 17.2495C91.558 17.1051 92.0312 16.9487 92.3678 16.8558C94.3707 16.303 96.5485 16.0126 98.9574 16.0126C106.419 16.0126 108.857 19.2337 108.857 25.2368V37.6602C108.857 38.198 108.421 38.634 107.883 38.634H104.793ZM102.663 29.3365V31.7158C102.663 33.1067 100.552 34.3147 98.2225 34.3147C96.1116 34.3147 94.583 33.5826 94.583 31.5693C94.583 29.7757 95.8932 28.824 98.8413 28.824C100.661 28.824 102.008 29.1535 102.663 29.3365ZM17.5991 38.634C17.1448 38.634 16.7509 38.3198 16.6498 37.8769L16.313 36.4011C14.566 38.0117 12.1275 39 9.21588 39C4.44805 39 1.5 36.5841 1.5 31.6792C1.5 27.7259 4.59363 24.761 10.4533 24.761C12.3823 24.761 14.0565 25.0538 15.4395 25.4198V24.3217C15.4395 22.1621 14.1293 21.0639 10.6353 21.0639C9.00317 21.0639 8.16115 21.179 7.31319 21.4348C6.96985 21.5384 6.34391 21.768 5.81891 21.9659C5.32143 22.1534 4.76294 21.9138 4.5616 21.4218L3.37939 18.5327C3.16868 18.0178 3.43125 17.432 3.95944 17.2571C4.63483 17.0336 5.51931 16.7547 6.11869 16.6176C7.85791 16.2199 9.72828 16.0126 11.7636 16.0126C19.2247 16.0126 21.6632 19.2337 21.6632 25.2368V37.6602C21.6632 38.198 21.2273 38.634 20.6895 38.634H17.5991ZM15.4496 29.3365V31.7158C15.4496 33.1067 13.3386 34.3147 11.0093 34.3147C8.89836 34.3147 7.36974 33.5826 7.36974 31.5693C7.36974 29.7757 8.67999 28.824 11.628 28.824C13.4478 28.824 14.7945 29.1535 15.4496 29.3365Z" fill="white"/>
</svg>
