<svg width="25" height="24" viewBox="0 0 25 24" fill="none" xmlns="http://www.w3.org/2000/svg">
<path fill-rule="evenodd" clip-rule="evenodd" d="M16.1014 2C16.1925 3.14445 15.8165 4.27799 15.0532 5.1599C14.3128 6.04638 13.1909 6.55699 12.0092 6.54528C11.9341 5.43378 12.321 4.3391 13.0848 3.50237C13.8583 2.6543 14.9354 2.11788 16.1014 2ZM19.9601 8.58033C18.5732 9.41143 17.7198 10.8771 17.6988 12.4639C17.7008 14.2591 18.8037 15.8792 20.5 16.5785C20.1738 17.6115 19.682 18.5878 19.043 19.4711C18.1848 20.7224 17.285 21.945 15.8568 21.9676C15.1775 21.9829 14.719 21.7925 14.2413 21.5941C13.7429 21.3871 13.2236 21.1715 12.411 21.1715C11.5492 21.1715 11.0066 21.3941 10.4834 21.6087C10.0312 21.7942 9.59337 21.9738 8.97638 21.9988C7.61628 22.0479 6.57679 20.6632 5.68738 19.4235C3.9097 16.892 2.52549 12.2892 4.38123 9.15732C5.25267 7.63089 6.88206 6.66229 8.67324 6.60588C9.44464 6.5904 10.1849 6.88022 10.8338 7.13431C11.3301 7.32862 11.7731 7.50205 12.1358 7.50205C12.4546 7.50205 12.8852 7.33547 13.387 7.14134C14.1775 6.83554 15.1447 6.46136 16.1303 6.5622C17.6619 6.60891 19.0812 7.35682 19.9601 8.58033Z" fill="black"/>
</svg>
