<svg width="24" height="24" viewBox="0 0 24 24" fill="none" xmlns="http://www.w3.org/2000/svg">
<path fill-rule="evenodd" clip-rule="evenodd" d="M12 6.48C13.69 6.48 14.83 7.21 15.48 7.82L18.02 5.34C16.46 3.89 14.43 3 12 3C8.48002 3 5.44002 5.02 3.96002 7.96L6.87002 10.22C7.60002 8.05 9.62002 6.48 12 6.48V6.48Z" fill="#EA4335"/>
<path fill-rule="evenodd" clip-rule="evenodd" d="M20.64 12.2C20.64 11.46 20.58 10.92 20.45 10.36H12V13.7H16.96C16.86 14.53 16.32 15.78 15.12 16.62L17.96 18.82C19.66 17.25 20.64 14.94 20.64 12.2V12.2Z" fill="#4285F4"/>
<path fill-rule="evenodd" clip-rule="evenodd" d="M6.88 13.78C6.69 13.22 6.58 12.62 6.58 12C6.58 11.38 6.69 10.78 6.87 10.22L3.96 7.96C3.35 9.18 3 10.55 3 12C3 13.45 3.35 14.82 3.96 16.04L6.88 13.78V13.78Z" fill="#FBBC05"/>
<path fill-rule="evenodd" clip-rule="evenodd" d="M12 21C14.43 21 16.47 20.2 17.96 18.82L15.12 16.62C14.36 17.15 13.34 17.52 12 17.52C9.61997 17.52 7.59997 15.95 6.87997 13.78L3.96997 16.04C5.44997 18.98 8.47997 21 12 21V21Z" fill="#34A853"/>
</svg>
